<svg width="76" height="76" viewBox="0 0 76 76" fill="none" xmlns="http://www.w3.org/2000/svg">
<path d="M0 10C0 4.47715 4.47715 0 10 0H66C71.5229 0 76 4.47715 76 10V66C76 71.5229 71.5229 76 66 76H10C4.47715 76 0 71.5229 0 66V10Z" fill="#F3ACC8"/>
<path fill-rule="evenodd" clip-rule="evenodd" d="M37.9958 19C49.0393 19 57.9916 27.9525 57.9916 38.9958C57.9916 48.5804 51.2476 56.5885 42.2462 58.5373C42.3278 58.2032 42.3715 57.8542 42.3715 57.495C42.3715 55.0784 40.4125 53.1193 37.9958 53.1193C35.5791 53.1193 33.6201 55.0784 33.6201 57.495C33.6201 57.8542 33.6638 58.2032 33.7454 58.5373C24.744 56.5885 18 48.5804 18 38.9958C18 27.9525 26.9523 19 37.9958 19Z" stroke="white" stroke-width="3" stroke-miterlimit="22.9256" stroke-linecap="round" stroke-linejoin="round"/>
<path d="M22.8544 41.3101C23.7385 38.622 26.2688 36.6812 29.2527 36.6812C32.2367 36.6812 34.767 38.622 35.6511 41.3101M40.3406 41.3101C41.2247 38.622 43.7549 36.6812 46.7389 36.6812C49.7229 36.6812 52.2532 38.622 53.1373 41.3101" stroke="white" stroke-width="3" stroke-miterlimit="22.9256" stroke-linecap="round" stroke-linejoin="round"/>
</svg>
