<svg width="76" height="76" viewBox="0 0 76 76" fill="none" xmlns="http://www.w3.org/2000/svg">
<path d="M0 10C0 4.47715 4.47715 0 10 0H66C71.5229 0 76 4.47715 76 10V66C76 71.5229 71.5229 76 66 76H10C4.47715 76 0 71.5229 0 66V10Z" fill="#79BC6D"/>
<path d="M47.4294 51.7497C46.7464 57.8537 41.5318 62.6401 35.2526 62.6401C28.5132 62.6401 23 57.1265 23 50.3875V29.2526C23 22.5137 28.5132 17 35.2526 17C41.992 17 47.5052 22.5137 47.5052 29.2526V34.6679" stroke="white" stroke-width="3" stroke-miterlimit="22.9256" stroke-linecap="round" stroke-linejoin="round"/>
<path fill-rule="evenodd" clip-rule="evenodd" d="M35.2526 20.2957C40.1425 20.2957 44.1065 24.2597 44.1065 29.1496C44.1065 33.282 41.2755 36.7529 37.4472 37.7292C37.2456 36.7011 36.3398 35.9255 35.2526 35.9255C34.1654 35.9255 33.2596 36.7011 33.0579 37.7292C29.2296 36.7529 26.3986 33.282 26.3986 29.1496C26.3986 24.2597 30.3626 20.2957 35.2526 20.2957Z" stroke="white" stroke-width="3" stroke-miterlimit="22.9256" stroke-linecap="round" stroke-linejoin="round"/>
<path d="M31.9025 33.1201C32.7837 33.1201 33.498 32.4058 33.498 31.5246C33.498 30.6435 32.7837 29.9292 31.9025 29.9292C31.0214 29.9292 30.3071 30.6435 30.3071 31.5246C30.3071 32.4058 31.0214 33.1201 31.9025 33.1201Z" stroke="white" stroke-width="3" stroke-miterlimit="22.9256" stroke-linecap="round" stroke-linejoin="round"/>
<path d="M38.6025 33.1201C39.4837 33.1201 40.198 32.4058 40.198 31.5246C40.198 30.6435 39.4837 29.9292 38.6025 29.9292C37.7214 29.9292 37.0071 30.6435 37.0071 31.5246C37.0071 32.4058 37.7214 33.1201 38.6025 33.1201Z" stroke="white" stroke-width="3" stroke-miterlimit="22.9256" stroke-linecap="round" stroke-linejoin="round"/>
<path d="M35.2526 39.196C35.8234 39.196 36.2862 38.7332 36.2862 38.1623C36.2862 37.5914 35.8234 37.1287 35.2526 37.1287C34.6817 37.1287 34.2189 37.5914 34.2189 38.1623C34.2189 38.7332 34.6817 39.196 35.2526 39.196Z" stroke="white" stroke-width="3" stroke-miterlimit="22.9256" stroke-linecap="round" stroke-linejoin="round"/>
<path fill-rule="evenodd" clip-rule="evenodd" d="M42.4388 44.6766V41.6988H46.0163V38.1213H48.9941V41.6988H52.5716V44.6766H48.9941V48.2541H46.0163V44.6766H42.4388Z" stroke="white" stroke-width="3" stroke-miterlimit="22.9256" stroke-linecap="round" stroke-linejoin="round"/>
</svg>
